<?xml version="1.0" encoding="UTF-8" standalone="no" ?>
<!DOCTYPE svg PUBLIC "-//W3C//DTD SVG 1.1//EN" "http://www.w3.org/Graphics/SVG/1.1/DTD/svg11.dtd">
<svg xmlns="http://www.w3.org/2000/svg" xmlns:xlink="http://www.w3.org/1999/xlink" version="1.1" width="1080" height="1080" viewBox="0 0 1080 1080" xml:space="preserve">
<desc>Created with Fabric.js 5.2.4</desc>
<defs>
</defs>
<g transform="matrix(1 0 0 1 540 540)" id="fd5d392b-6495-45b1-a74b-eb5288cc69bd"  >
<rect style="stroke: none; stroke-width: 1; stroke-dasharray: none; stroke-linecap: butt; stroke-dashoffset: 0; stroke-linejoin: miter; stroke-miterlimit: 4; fill: rgb(255,255,255); fill-rule: nonzero; opacity: 1; visibility: hidden;" vector-effect="non-scaling-stroke"  x="-540" y="-540" rx="0" ry="0" width="1080" height="1080" />
</g>
<g transform="matrix(1 0 0 1 540 540)" id="d23dab65-760f-48ec-a4bc-e4bd52b10280"  >
</g>
<g transform="matrix(1 0 0 1 540 540)"  >
<g style="" vector-effect="non-scaling-stroke"   >
		<g transform="matrix(1 0 0 1 -93.38 19.93)" id="path354"  >
<path style="stroke: none; stroke-width: 20.9836; stroke-dasharray: none; stroke-linecap: butt; stroke-dashoffset: 0; stroke-linejoin: miter; stroke-miterlimit: 4; fill: rgb(255,255,255); fill-rule: nonzero; opacity: 1;" vector-effect="non-scaling-stroke"  transform=" translate(-546.62, -186.75)" d="M 568.65574 39.868852 L 568.65574 102.81967 L 619.01639 102.81967 L 619.01639 153.18033 L 568.65574 153.18033 L 568.65574 253.90164 C 568.65574 272.78688999999997 579.14754 279.08197 595.93443 279.08197 C 606.42623 279.08197 616.91803 276.98361 623.21311 270.68852000000004 L 623.21311 327.34426 C 614.81967 331.54098000000005 598.03279 333.63934 581.2459 333.63934 C 535.08197 333.63934 505.70492 310.55738 505.70492 260.19672 L 505.70492 153.18033 L 470.03279000000003 153.18033 L 470.03279000000003 102.81967 L 505.70492 102.81967 L 505.70492 39.868852 Z" stroke-linecap="round" />
</g>
		<g transform="matrix(1 0 0 1 517.25 1.05)" id="path352"  >
<path style="stroke: none; stroke-width: 20.9836; stroke-dasharray: none; stroke-linecap: butt; stroke-dashoffset: 0; stroke-linejoin: miter; stroke-miterlimit: 4; fill: rgb(255,255,255); fill-rule: nonzero; opacity: 1;" vector-effect="non-scaling-stroke"  transform=" translate(-1157.25, -167.87)" d="M 1089.0492 4.1967213 C 1223.3443 4.1967213 1280 77.639344 1280 167.86885 C 1280 258.09836 1223.3443 331.54098 1089.0492 331.54098 L 1034.4918 331.54098 L 1034.4918 4.1967213 Z" stroke-linecap="round" />
</g>
		<g transform="matrix(1 0 0 1 208.79 -1.05)" id="path350"  >
<path style="stroke: none; stroke-width: 20.9836; stroke-dasharray: none; stroke-linecap: butt; stroke-dashoffset: 0; stroke-linejoin: miter; stroke-miterlimit: 4; fill: rgb(255,255,255); fill-rule: nonzero; opacity: 1;" vector-effect="non-scaling-stroke"  transform=" translate(-848.79, -165.77)" d="M 847.73828 0 C 803.67276 0 768 35.672751 768 79.738281 C 768 123.80381 803.67276 159.47461 847.73828 159.47461 C 891.80382 159.47461 927.47461 123.80381 927.47461 79.738281 C 927.47461 35.672751 891.80382 0 847.73828 0 z M 847.73828 188.85156 C 774.29573 188.85156 713.44226 230.81981 705.04883 331.54102 L 992.52539 331.54102 C 984.13196 230.81981 923.2792 188.85156 847.73828 188.85156 z" stroke-linecap="round" />
</g>
		<g transform="matrix(1 0 0 1 -483.67 7.34)" id="path348"  >
<path style="stroke: none; stroke-width: 20.9836; stroke-dasharray: none; stroke-linecap: butt; stroke-dashoffset: 0; stroke-linejoin: miter; stroke-miterlimit: 4; fill: rgb(255,255,255); fill-rule: nonzero; opacity: 1;" vector-effect="non-scaling-stroke"  transform=" translate(-156.33, -174.16)" d="M 60.852459 16.786885 L 157.37705 165.77049 L 251.80328 16.786885 L 312.65574 16.786885 L 312.65574 331.54098 L 247.60656 331.54098 L 247.60656 128 L 158.42623 262.29508 L 156.32787 262.29508 L 65.04918 128 L 65.04918 331.54098 L 0 331.54098 L 0 16.786885 Z" stroke-linecap="round" />
</g>
		<g transform="matrix(1 0 0 1 -237.11 -1.05)" id="path346"  >
<path style="stroke: none; stroke-width: 20.9836; stroke-dasharray: none; stroke-linecap: butt; stroke-dashoffset: 0; stroke-linejoin: miter; stroke-miterlimit: 4; fill: rgb(255,255,255); fill-rule: nonzero; opacity: 1;" vector-effect="non-scaling-stroke"  transform=" translate(-402.89, -165.77)" d="M 402.88477 0 C 381.90118 4.7369468e-15 365.11523 16.785945 365.11523 37.769531 C 365.11523 58.753116 381.90118 75.541016 402.88477 75.541016 C 423.86834 75.541016 440.65625 58.753116 440.65625 37.769531 C 440.65625 16.785945 423.86834 0 402.88477 0 z M 371.41016 102.82031 L 371.41016 331.54102 L 434.36133 331.54102 L 434.36133 102.82031 L 371.41016 102.82031 z" stroke-linecap="round" />
</g>
</g>
</g>
</svg>