<?xml version="1.0" encoding="UTF-8"?>
<svg width="14px" height="8px" viewBox="0 0 14 8" version="1.1" xmlns="http://www.w3.org/2000/svg" xmlns:xlink="http://www.w3.org/1999/xlink">
    <!-- Generator: Sketch 64 (93537) - https://sketch.com -->
    <title>ICONS/micro_chevron</title>
    <desc>Created with Sketch.</desc>
    <g id="Page-1" stroke="none" stroke-width="1" fill="none" fill-rule="evenodd">
        <g id="ICONS/micro_chevron" transform="translate(-1.000000, -3.000000)">
            <g id="ICONS/micro_globe">
                <rect id="Rectangle" x="0.565217391" y="0.347826087" width="14.0869565" height="14.0869565"></rect>
            </g>
            <path d="M11,2.5 C11.2454599,2.5 11.4496084,2.67687516 11.4919443,2.91012437 L11.5,3 L11.5,11 C11.5,11.2761424 11.2761424,11.5 11,11.5 C10.7545401,11.5 10.5503916,11.3231248 10.5080557,11.0898756 L10.5,11 L10.5,3 C10.5,2.72385763 10.7238576,2.5 11,2.5 Z" id="Stroke-5" fill="#000000" fill-rule="nonzero" transform="translate(11.000000, 7.000000) rotate(45.000000) translate(-11.000000, -7.000000) "></path>
            <path d="M5.07071068,2.47071068 C5.31617057,2.47071068 5.52031905,2.64758584 5.56265501,2.88083505 L5.57071068,2.97071068 L5.57071068,11.1707107 C5.57071068,11.4468531 5.34685305,11.6707107 5.07071068,11.6707107 C4.82525079,11.6707107 4.62110231,11.4938355 4.57876635,11.2605863 L4.57071068,11.1707107 L4.57071068,2.97071068 C4.57071068,2.6945683 4.7945683,2.47071068 5.07071068,2.47071068 Z" id="Stroke-5" fill="#000000" fill-rule="nonzero" transform="translate(5.070711, 7.070711) rotate(135.000000) translate(-5.070711, -7.070711) "></path>
        </g>
    </g>
</svg>